<?xml version="1.0" standalone="no"?>
<!DOCTYPE svg PUBLIC "-//W3C//DTD SVG 20010904//EN"
 "http://www.w3.org/TR/2001/REC-SVG-20010904/DTD/svg10.dtd">
<svg version="1.0" xmlns="http://www.w3.org/2000/svg"
 width="260.000000pt" height="260.000000pt" viewBox="0 0 260.000000 260.000000"
 preserveAspectRatio="xMidYMid meet">
<metadata>
Created by potrace 1.14, written by Peter Selinger 2001-2017
</metadata>
<g transform="translate(0.000000,260.000000) scale(0.100000,-0.100000)"
fill="#000000" stroke="none">
<path d="M120 2359 c30 -5 159 -18 285 -29 127 -11 247 -23 268 -26 l37 -6 1
-921 c0 -507 3 -929 7 -937 6 -13 47 -15 276 -15 235 0 262 2 215 12 -30 7
-75 15 -101 19 l-48 7 0 953 0 954 -497 -1 c-312 -1 -477 -5 -443 -10z"/>
</g>
</svg>
